PathFileType	4	(X/Y/Z)	C:\Users\u0088756\Documents\documenten\software\SoftwareProjects\DC_TrackingSimulation\Data\Patient20\InputData\MarkerFile_DataSel.trc
DataRate	CameraRate	NumFrames	NumMarkers	Units	OrigDataRate	OrigDataStartFrame	OrigNumFrames
200.000000	200.000000	8	47	m	200.000000	144	230
Frame#	Times		C7		CLAV		LSHO		LUA1		LELB		LLA1		LWRA		LWRB		LFIN		RSHO		RUA1		RELB		RLA1		RWRA		RWRB		RFIN		LASI		RASI		RPSI		LPSI		LTHI		LTHI3		LKNE		LKNEmed		LTIB		LTIB2		LTIB3		LANKmed		LHEE		LTOE		LLatFoot		RTHI		RTHI2		RTHI3		RKNE		RKNEmed		RTIB		RTIB2		RTIB3		RANK		RHEE		RTOE		RLatFoot		Unlabeled50		Unlabeled51		Unlabeled52		*52
			X1	Y1	Z1	X2	Y2	Z2	X3	Y3	Z3	X4	Y4	Z4	X5	Y5	Z5	X6	Y6	Z6	X7	Y7	Z7	X8	Y8	Z8	X9	Y9	Z9	X10	Y10	Z10	X11	Y11	Z11	X12	Y12	Z12	X13	Y13	Z13	X14	Y14	Z14	X15	Y15	Z15	X16	Y16	Z16	X17	Y17	Z17	X18	Y18	Z18	X19	Y19	Z19	X20	Y20	Z20	X21	Y21	Z21	X22	Y22	Z22	X23	Y23	Z23	X24	Y24	Z24	X25	Y25	Z25	X26	Y26	Z26	X27	Y27	Z27	X28	Y28	Z28	X29	Y29	Z29	X30	Y30	Z30	X31	Y31	Z31	X32	Y32	Z32	X33	Y33	Z33	X34	Y34	Z34	X35	Y35	Z35	X36	Y36	Z36	X37	Y37	Z37	X38	Y38	Z38	X39	Y39	Z39	X40	Y40	Z40	X41	Y41	Z41	X42	Y42	Z42	X43	Y43	Z43	X44	Y44	Z44	X45	Y45	Z45	X46	Y46	Z46	X47	Y47	Z47

144	0.715	1.0087	1.3815	0.03032	1.1366	1.3151	0.017111	1.0878	1.3321	-0.16012	1.0702	1.1822	-0.21146	1.1248	1.065	-0.23568	1.2136	0.99354	-0.2356	1.3074	0.92431	-0.17119	1.2812	0.89206	-0.22985	1.3469	0.88541	-0.21028	1.0542	1.3252	0.20768	0.9974	1.1819	0.256	0.97611	1.0443	0.28236	1.0103	0.93457	0.32967	1.0586	0.812	0.30641	0.9925	0.81619	0.33351	1.0454	0.76233	0.35432	1.1524	0.89235	-0.10862	1.1715	0.89916	0.098215	0.97319	0.93355	0.054463	0.96797	0.93434	-0.018231	1.0579	0.598	-0.1469	1.0281	0.56285	-0.14476	1.0108	0.43231	-0.11941	1.0097	0.42843	0.006952	0.9833	0.359	-0.12135	0.92745	0.41205	-0.12981	0.92891	0.35643	-0.14154	0.74736	0.16892	-0.04316	0.65141	0.19816	-0.077194	0.77891	0.060187	-0.04955	0.71478	0.083437	-0.13293	1.2139	0.65028	0.1595	1.1594	0.6274	0.17992	1.2003	0.59453	0.16071	1.2253	0.46287	0.13669	1.2198	0.46683	0.0084116	1.2584	0.30697	0.15098	1.2051	0.30203	0.1614	1.233	0.25614	0.15383	1.2514	0.092933	0.11911	1.1817	0.053705	0.062496	1.3663	0.063652	0.04362	1.3067	0.039439	0.12962	1.0873	0.031515	-0.54806	0.46095	0.024774	-0.53403	0.50757	0.025922	0.53924	1.0155	0.034026	0.53865
145	0.72	1.0143	1.3824	0.031075	1.1422	1.3159	0.017729	1.0933	1.3332	-0.15944	1.0758	1.1836	-0.21115	1.1291	1.0659	-0.23481	1.2174	0.99354	-0.23483	1.3101	0.923	-0.17032	1.2836	0.89123	-0.22929	1.3492	0.88349	-0.20929	1.06	1.3259	0.20837	1.0038	1.1824	0.25669	0.98301	1.0447	0.28308	1.018	0.93497	0.32999	1.067	0.81279	0.30622	1.0006	0.81651	0.3338	1.0543	0.76293	0.35402	1.1575	0.89301	-0.10799	1.1771	0.90021	0.098787	0.97848	0.93432	0.055112	0.97342	0.935	-0.017536	1.0663	0.59786	-0.14618	1.0372	0.56222	-0.14415	1.0216	0.43159	-0.11915	1.0212	0.42718	0.0077003	0.99352	0.3588	-0.12123	0.93838	0.41236	-0.12973	0.93939	0.35677	-0.14155	0.75482	0.17262	-0.043098	0.66081	0.20564	-0.077461	0.78288	0.06282	-0.049587	0.71976	0.088603	-0.13314	1.2191	0.65137	0.15969	1.1651	0.62893	0.1807	1.2057	0.59577	0.16124	1.2291	0.46292	0.13698	1.2243	0.46698	0.008612	1.2609	0.30668	0.15089	1.2077	0.30217	0.16175	1.2352	0.2561	0.15384	1.2516	0.092823	0.11916	1.1817	0.053576	0.0626	1.3664	0.063281	0.043655	1.3067	0.039366	0.12973	1.0933	0.031997	-0.54823	0.4665	0.024766	-0.53407	0.51304	0.025835	0.53914	1.021	0.03393	0.53848
146	0.725	1.02	1.3833	0.031888	1.1478	1.3168	0.018319	1.0988	1.3344	-0.1588	1.0813	1.1849	-0.21077	1.1334	1.0668	-0.23396	1.2211	0.99354	-0.23412	1.3129	0.92176	-0.16944	1.2859	0.89027	-0.22841	1.3515	0.88161	-0.20848	1.0658	1.3267	0.209	1.0103	1.1829	0.25744	0.98997	1.0452	0.28376	1.0258	0.93539	0.33031	1.0754	0.81366	0.30598	1.0094	0.81696	0.33378	1.0633	0.76356	0.35366	1.1627	0.89365	-0.10737	1.1827	0.90123	0.099348	0.98396	0.9352	0.055779	0.97868	0.93561	-0.016835	1.0749	0.59777	-0.14554	1.0463	0.56172	-0.14352	1.0326	0.43093	-0.11869	1.0322	0.42623	0.00842	1.0042	0.35862	-0.1211	0.94953	0.41283	-0.12968	0.95012	0.35712	-0.14189	0.76275	0.17635	-0.043129	0.67048	0.21325	-0.077296	0.78721	0.065622	-0.049612	0.72532	0.093653	-0.13333	1.2236	0.65204	0.15996	1.1698	0.63004	0.18134	1.21	0.59664	0.16172	1.2326	0.46289	0.13738	1.2285	0.46701	0.0089091	1.2633	0.30645	0.15083	1.21	0.30233	0.16182	1.2371	0.25603	0.15387	1.2518	0.092693	0.11924	1.1817	0.053479	0.062704	1.3665	0.062909	0.043692	1.3066	0.039249	0.12981	1.0989	0.032048	-0.54834	0.4719	0.024804	-0.53402	0.51865	0.025817	0.53894	1.0265	0.033925	0.53859
147	0.73	1.0256	1.3843	0.032685	1.1533	1.3177	0.018849	1.1042	1.3355	-0.15811	1.0867	1.1863	-0.21055	1.1376	1.0676	-0.23323	1.2246	0.99334	-0.23339	1.3154	0.9202	-0.16861	1.2882	0.88932	-0.22767	1.3537	0.87962	-0.20766	1.0717	1.3275	0.2096	1.0168	1.1835	0.25818	0.99693	1.0457	0.2846	1.0337	0.93592	0.33058	1.084	0.81452	0.30575	1.0181	0.81727	0.33383	1.0725	0.76424	0.35327	1.1677	0.89431	-0.1068	1.1883	0.90221	0.099889	0.98949	0.936	0.056444	0.98386	0.93623	-0.01612	1.0834	0.59784	-0.14501	1.0554	0.56139	-0.14301	1.0438	0.43032	-0.11849	1.0437	0.42539	0.0089206	1.0149	0.35861	-0.12101	0.96081	0.41334	-0.12967	0.96079	0.35766	-0.14199	0.7711	0.18009	-0.043095	0.6808	0.22044	-0.077388	0.79196	0.068581	-0.04956	0.73121	0.098803	-0.13306	1.228	0.65232	0.16041	1.1741	0.63086	0.18184	1.214	0.59709	0.1625	1.2357	0.46287	0.13781	1.2323	0.46699	0.0093626	1.2654	0.3062	0.15081	1.2121	0.30245	0.16195	1.2389	0.25596	0.15391	1.2521	0.092553	0.11932	1.1817	0.053434	0.062872	1.3666	0.062605	0.043749	1.3067	0.039177	0.12987	1.1038	0.031726	-0.54805	0.47731	0.024811	-0.53406	0.52394	0.025713	0.53899	1.0319	0.033921	0.53856
148	0.735	1.0312	1.3852	0.033447	1.1588	1.3186	0.019356	1.1094	1.3365	-0.15754	1.0919	1.1876	-0.21033	1.1418	1.0685	-0.23253	1.228	0.99324	-0.23272	1.3176	0.91861	-0.168	1.2903	0.88838	-0.22714	1.3556	0.87767	-0.20691	1.0776	1.3282	0.2102	1.0233	1.184	0.25896	1.004	1.0462	0.2854	1.0417	0.93642	0.33089	1.0926	0.81555	0.30542	1.0269	0.81768	0.33393	1.0817	0.76498	0.35287	1.1731	0.89495	-0.10564	1.1938	0.90316	0.10037	0.99523	0.93702	0.05709	0.98907	0.93691	-0.015446	1.092	0.59813	-0.14459	1.0644	0.56124	-0.14252	1.0545	0.43012	-0.11834	1.0553	0.42473	0.009362	1.0256	0.35869	-0.12098	0.97206	0.41386	-0.12964	0.97167	0.35823	-0.14208	0.77962	0.18372	-0.042912	0.69134	0.2271	-0.077341	0.79703	0.071508	-0.049447	0.7368	0.104	-0.13281	1.2322	0.65219	0.16109	1.1779	0.63145	0.18238	1.2177	0.59704	0.16342	1.2386	0.46281	0.13823	1.2357	0.4669	0.0099095	1.2674	0.30592	0.15089	1.2141	0.30258	0.162	1.2405	0.25589	0.15393	1.2522	0.092453	0.11939	1.1816	0.05332	0.062919	1.3665	0.062313	0.0438	1.3066	0.039062	0.12999	1.1093	0.031841	-0.54802	0.48288	0.024761	-0.53398	0.52938	0.025696	0.539	1.0374	0.033977	0.53863
149	0.74	1.0366	1.3862	0.034232	1.1642	1.3195	0.019808	1.1145	1.3376	-0.15696	1.0971	1.189	-0.21011	1.146	1.0694	-0.23192	1.2314	0.99304	-0.23213	1.3201	0.91718	-0.16731	1.2925	0.88753	-0.22674	1.3575	0.8757	-0.20625	1.0835	1.3291	0.21079	1.0298	1.1846	0.25978	1.0111	1.0466	0.28621	1.0497	0.937	0.33117	1.1012	0.81648	0.30513	1.0357	0.81813	0.33402	1.091	0.76573	0.35242	1.1775	0.89537	-0.10576	1.1993	0.9041	0.10085	1.0003	0.93785	0.057811	0.99401	0.93759	-0.014591	1.1004	0.59861	-0.1443	1.0734	0.56139	-0.14212	1.0653	0.43004	-0.11824	1.0669	0.42436	0.0096285	1.0365	0.35891	-0.12098	0.98352	0.41458	-0.1297	0.98266	0.35896	-0.14223	0.78821	0.18723	-0.042744	0.70174	0.23317	-0.077104	0.80252	0.074466	-0.049291	0.7431	0.10885	-0.13256	1.2364	0.65182	0.16202	1.1814	0.63185	0.18284	1.2209	0.59682	0.16419	1.2412	0.46273	0.13864	1.2385	0.46681	0.010505	1.2691	0.30567	0.15106	1.2158	0.3027	0.16201	1.2418	0.25586	0.15407	1.2522	0.092293	0.1194	1.1816	0.053286	0.06297	1.3665	0.062078	0.04388	1.3066	0.038978	0.13009	1.1146	0.03147	-0.54811	0.48837	0.024738	-0.53406	0.53482	0.025704	0.53902	1.0429	0.033952	0.53856
150	0.745	1.0421	1.3871	0.035019	1.1696	1.3204	0.020222	1.1195	1.3387	-0.15641	1.1021	1.1904	-0.2099	1.1501	1.0703	-0.23137	1.2347	0.99294	-0.23157	1.3222	0.91553	-0.16682	1.2945	0.88678	-0.22676	1.3593	0.87371	-0.20566	1.0894	1.3299	0.2114	1.0364	1.1852	0.2606	1.0182	1.0472	0.28712	1.0579	0.93755	0.33149	1.11	0.8175	0.30469	1.0446	0.81856	0.33409	1.1004	0.76654	0.35193	1.1825	0.89627	-0.10533	1.2048	0.90496	0.10127	1.0056	0.93875	0.058597	0.99929	0.93837	-0.013984	1.1087	0.5993	-0.14411	1.0823	0.56153	-0.1416	1.0762	0.43017	-0.11818	1.0794	0.42424	0.009404	1.0474	0.35921	-0.12096	0.99505	0.41546	-0.12976	0.9937	0.3598	-0.14234	0.79715	0.19056	-0.042557	0.71181	0.23845	-0.076502	0.8087	0.077301	-0.049189	0.7495	0.11335	-0.13257	1.2402	0.65121	0.16305	1.1845	0.63187	0.18334	1.2237	0.5964	0.16487	1.2437	0.4626	0.13911	1.241	0.46673	0.011094	1.2707	0.30542	0.15127	1.2173	0.30287	0.16205	1.243	0.25579	0.15414	1.2523	0.092183	0.11951	1.1816	0.053239	0.063129	1.3665	0.061871	0.043939	1.3065	0.038858	0.13013	1.12	0.031376	-0.54804	0.4938	0.024745	-0.53406	0.54037	0.025693	0.53891	1.0484	0.033938	0.53854
151	0.75	1.0476	1.3881	0.03576	1.175	1.3212	0.020615	1.1244	1.3397	-0.15592	1.1069	1.1918	-0.20965	1.1543	1.0712	-0.23092	1.238	0.99284	-0.23107	1.3243	0.91414	-0.16639	1.2966	0.88601	-0.22668	1.361	0.87178	-0.20516	1.0953	1.3307	0.21197	1.043	1.1858	0.2614	1.0255	1.0477	0.28795	1.0661	0.93815	0.33169	1.1188	0.81861	0.30426	1.0538	0.81908	0.33404	1.11	0.7674	0.35142	1.1875	0.897	-0.10489	1.2102	0.90587	0.10166	1.0106	0.93976	0.059137	1.0044	0.93909	-0.013237	1.1169	0.60011	-0.144	1.0909	0.56223	-0.14152	1.0871	0.43055	-0.11822	1.091	0.42431	0.009537	1.0582	0.35949	-0.12099	1.0065	0.41635	-0.12979	1.0048	0.36072	-0.14243	0.80605	0.19373	-0.042311	0.72172	0.24298	-0.075597	0.81588	0.079929	-0.049399	0.75631	0.11734	-0.13225	1.2437	0.65043	0.1639	1.1875	0.63173	0.18375	1.2262	0.59576	0.16547	1.2459	0.46237	0.13957	1.243	0.4667	0.011683	1.272	0.30518	0.15169	1.2186	0.30301	0.16212	1.2439	0.25576	0.1543	1.2527	0.092193	0.11941	1.1813	0.053097	0.06322	1.3665	0.061679	0.044019	1.3064	0.038781	0.13022	1.1256	0.031684	-0.54794	0.49971	0.024708	-0.53434	0.54593	0.025734	0.53886	1.0538	0.033928	0.53853
